<?xml version="1.0" encoding="utf-8"?>
<!-- Generator: Adobe Illustrator 20.1.0, SVG Export Plug-In . SVG Version: 6.00 Build 0)  -->
<svg version="1.1" id="Layer_1" xmlns="http://www.w3.org/2000/svg" xmlns:xlink="http://www.w3.org/1999/xlink" x="0px" y="0px"
	 viewBox="0 0 70.7 90.5" style="enable-background:new 0 0 70.7 90.5;" xml:space="preserve">
<style type="text/css">
	.st0{fill:none;stroke:#000000;stroke-width:10;stroke-miterlimit:10;}
</style>
<path d="M8.5,0C3.8,0,0,3.8,0,8.5v62.4c0,4.7,3.8,8.5,8.5,8.5h23.2v11.2l8.5-5l8.5,5V79.3l17.7,0V67.1h4.3V0L8.5,0z M61.7,74.6
	l-13,0v-3.4h-17v3.4H8.5c-2.1,0-3.8-1.7-3.8-3.8s1.7-3.8,3.8-3.8h53.2V74.6z M66,62.4H14.8V4.7H66V62.4z"/>
<line class="st0" x1="59" y1="36.5" x2="21.9" y2="36.5"/>
<line class="st0" x1="40.4" y1="55.1" x2="40.4" y2="18"/>
</svg>
