<?xml version="1.0" encoding="utf-8"?>
<!-- Generator: Adobe Illustrator 20.1.0, SVG Export Plug-In . SVG Version: 6.00 Build 0)  -->
<svg version="1.1" id="Layer_1" xmlns="http://www.w3.org/2000/svg" xmlns:xlink="http://www.w3.org/1999/xlink" x="0px" y="0px"
	 viewBox="0 0 70.7 90.5" style="enable-background:new 0 0 70.7 90.5;" xml:space="preserve">
<g>
	<path d="M59,24.7c0-4.4-3.6-8-8-8c-2,0-3.8,0.8-5.2,2c-1.4-1.2-3.2-2-5.2-2c-2,0-3.9,0.8-5.3,2c-1.4-1.2-3.2-2-5.3-2
		c-4.4,0-8,3.6-8,8c0,3.3,2,6.2,4.9,7.4v12.6h27.2V32.1C57,30.9,59,28,59,24.7z"/>
	<rect x="26.8" y="48.7" width="27.2" height="4"/>
</g>
<path d="M8.5,0C3.8,0,0,3.8,0,8.5v62.4c0,4.7,3.8,8.5,8.5,8.5h23.2v11.2l8.5-5l8.5,5V79.3l17.7,0V67.1h4.3V0L8.5,0z M61.7,74.6
	l-13,0v-3.4h-17v3.4H8.5c-2.1,0-3.8-1.7-3.8-3.8s1.7-3.8,3.8-3.8h53.2V74.6z M66,62.4H14.8V4.7H66V62.4z"/>
</svg>
