<?xml version="1.0" encoding="utf-8"?>
<!-- Generator: Adobe Illustrator 20.1.0, SVG Export Plug-In . SVG Version: 6.00 Build 0)  -->
<svg version="1.1"
	 id="Layer_1" xmlns:cc="http://creativecommons.org/ns#" xmlns:dc="http://purl.org/dc/elements/1.1/" xmlns:inkscape="http://www.inkscape.org/namespaces/inkscape" xmlns:rdf="http://www.w3.org/1999/02/22-rdf-syntax-ns#" xmlns:sodipodi="http://sodipodi.sourceforge.net/DTD/sodipodi-0.dtd" xmlns:svg="http://www.w3.org/2000/svg"
	 xmlns="http://www.w3.org/2000/svg" xmlns:xlink="http://www.w3.org/1999/xlink" x="0px" y="0px" viewBox="0 0 87.9 84"
	 style="enable-background:new 0 0 87.9 84;" xml:space="preserve">
<g transform="translate(0,-952.36218)">
	<path d="M44,952.4c-0.4,0-0.8,0.2-1.3,0.5l-42,36c-0.6,0.5-0.9,1.5-0.6,2.2c0.3,0.8,1.1,1.3,1.9,1.3h11v42c0,1,1,2,2,2h58
		c1,0,2-1,2-2v-42h11c0.8,0,1.6-0.5,1.9-1.3c0.3-0.8,0-1.7-0.6-2.2l-42-36C44.8,952.5,44.4,952.4,44,952.4z M44,957l36.6,31.4H73
		c-1,0-2,1-2,2v42H17v-42c0-1-1-2-2-2H7.4L44,957z M30,994.4v12h12v-12H30z M46,994.4v12h12v-12C58,994.4,46,994.4,46,994.4z
		 M30,1010.4v12h12v-12H30z M46,1010.4v12h12v-12C58,1010.4,46,1010.4,46,1010.4z"/>
</g>
</svg>
