<?xml version="1.0" encoding="utf-8"?>
<!-- Generator: Adobe Illustrator 20.1.0, SVG Export Plug-In . SVG Version: 6.00 Build 0)  -->
<svg version="1.1" id="Layer_1" xmlns="http://www.w3.org/2000/svg" xmlns:xlink="http://www.w3.org/1999/xlink" x="0px" y="0px"
	 viewBox="0 0 101.6 92.5" style="enable-background:new 0 0 101.6 92.5;" xml:space="preserve">
<path d="M100.6,71.7C88.3,63.5,88.6,36,88.8,11.8c0-3.5,0.1-6.9,0.1-10.3c0-1.2-0.9-2.1-2.1-2.1H10.6c-0.1,0-0.1,0-0.2,0
	c-0.1,0-0.3,0-0.4,0.1c-0.1,0-0.2,0.1-0.4,0.1C9.5-0.3,9.4-0.2,9.3-0.1C9.2,0,9.1,0.1,9,0.2c0,0.1-0.1,0.1-0.1,0.1L0.4,13
	C0.1,13.4,0,13.8,0,14.2v76.2c0,0.3,0.1,0.6,0.2,0.8c0.1,0.1,0.2,0.2,0.2,0.4c0.1,0.1,0.1,0.2,0.2,0.3C0.7,92,0.8,92,0.9,92
	c0.1,0.1,0.3,0.2,0.5,0.3c0.3,0.1,0.5,0.2,0.8,0.2h72c0.4,0,0.8-0.1,1.2-0.4L88,83.7c0.1,0,0.1-0.1,0.1-0.1c0.1-0.1,0.2-0.2,0.3-0.3
	c0.1-0.1,0.2-0.2,0.2-0.3c0.1-0.1,0.1-0.2,0.2-0.4c0-0.1,0.1-0.3,0.1-0.4c0-0.1,0-0.1,0-0.2v-6.3h10.6c0.9,0,1.8-0.6,2-1.5
	C101.8,73.2,101.4,72.2,100.6,71.7z M8.5,8.5V81l-4.2,4.2V14.8L8.5,8.5z M73.4,88.3H7.2l4.2-4.2h68.3L73.4,88.3z M84.7,79.8h-72V51
	c2.6,10.9,6.9,19.8,13.6,24.3c0.3,0.2,0.8,0.4,1.2,0.4h57.1V79.8z M28.2,71.3C14.8,61.7,12.8,30.6,12.7,3.6h71.9
	c0,2.7,0,5.4-0.1,8.1c-0.2,23.6-0.5,47.8,9.4,59.6H28.2z"/>
</svg>
