<?xml version="1.0" encoding="utf-8"?>
<!-- Generator: Adobe Illustrator 20.1.0, SVG Export Plug-In . SVG Version: 6.00 Build 0)  -->
<svg version="1.1" id="Layer_1" xmlns="http://www.w3.org/2000/svg" xmlns:xlink="http://www.w3.org/1999/xlink" x="0px" y="0px"
	 viewBox="0 0 92.9 90.5" style="enable-background:new 0 0 92.9 90.5;" xml:space="preserve">
<g>
	<path d="M89.7,33.6H59.8L49.4,2.2C49,0.9,47.8,0,46.4,0c-1.4,0-2.6,0.9-3,2.2L33.1,33.6H3.2c-1.4,0-2.6,0.9-3,2.2
		c-0.4,1.3,0.1,2.8,1.2,3.6l24.2,17.2l-9.7,29.7c-0.4,1.3,0,2.7,1.1,3.6c1.1,0.8,2.6,0.8,3.7,0l25.8-18.4l25.8,18.4
		c0.6,0.4,1.2,0.6,1.8,0.6c0.7,0,1.3-0.2,1.9-0.6c1.1-0.8,1.6-2.2,1.1-3.6l-9.7-29.7l24.2-17.2c1.1-0.8,1.6-2.2,1.2-3.6
		C92.3,34.5,91.1,33.6,89.7,33.6z M61.7,52.8c-1.1,0.8-1.6,2.3-1.2,3.6L68,79.1L48.3,65c-0.6-0.4-1.2-0.6-1.8-0.6s-1.3,0.2-1.8,0.6
		L24.8,79.1l7.5-22.7c0.4-1.3,0-2.8-1.2-3.6L13.1,40h22.3c1.4,0,2.6-0.9,3-2.2l8-24.5l8,24.5c0.4,1.3,1.6,2.2,3,2.2h22.3L61.7,52.8z
		"/>
</g>
</svg>
